<mxfile host="app.diagrams.net" modified="2024-01-18T08:38:37.696Z" agent="Mozilla/5.0 (Windows NT 10.0; WOW64) AppleWebKit/537.36 (KHTML, like Gecko) Chrome/86.0.4240.198 Safari/537.36" etag="ZW671B2TLiLxbw5_RZkj" version="22.1.21" type="github">
  <diagram name="第 1 页" id="3ZxEWbqBLbdvhq-6wv4d">
    <mxGraphModel dx="1101" dy="639" grid="0" gridSize="10" guides="1" tooltips="1" connect="1" arrows="1" fold="1" page="1" pageScale="1" pageWidth="200000" pageHeight="200000" math="0" shadow="0">
      <root>
        <mxCell id="0" />
        <mxCell id="1" parent="0" />
        <mxCell id="laBx5j-lxXaf5YrroS2R-7" style="rounded=0;orthogonalLoop=1;jettySize=auto;html=1;entryX=0.017;entryY=0.692;entryDx=0;entryDy=0;entryPerimeter=0;endArrow=none;endFill=0;exitX=1;exitY=0.3333333333333333;exitDx=0;exitDy=0;exitPerimeter=0;" edge="1" parent="1" source="laBx5j-lxXaf5YrroS2R-1" target="laBx5j-lxXaf5YrroS2R-6">
          <mxGeometry relative="1" as="geometry">
            <mxPoint x="182" y="335" as="sourcePoint" />
            <mxPoint x="336" y="243" as="targetPoint" />
          </mxGeometry>
        </mxCell>
        <mxCell id="laBx5j-lxXaf5YrroS2R-1" value="&lt;font style=&quot;font-size: 16px;&quot;&gt;用户&lt;/font&gt;" style="shape=umlActor;verticalLabelPosition=bottom;verticalAlign=top;html=1;outlineConnect=0;" vertex="1" parent="1">
          <mxGeometry x="136" y="356" width="38" height="64" as="geometry" />
        </mxCell>
        <mxCell id="laBx5j-lxXaf5YrroS2R-14" style="rounded=0;orthogonalLoop=1;jettySize=auto;html=1;exitX=1;exitY=0;exitDx=0;exitDy=0;entryX=0;entryY=0.5;entryDx=0;entryDy=0;dashed=1;" edge="1" parent="1" source="laBx5j-lxXaf5YrroS2R-6" target="laBx5j-lxXaf5YrroS2R-8">
          <mxGeometry relative="1" as="geometry" />
        </mxCell>
        <mxCell id="laBx5j-lxXaf5YrroS2R-15" value="&lt;font style=&quot;font-size: 16px;&quot;&gt;&amp;lt;&amp;lt;包含&amp;gt;&amp;gt;&lt;/font&gt;" style="edgeLabel;html=1;align=center;verticalAlign=middle;resizable=0;points=[];" vertex="1" connectable="0" parent="laBx5j-lxXaf5YrroS2R-14">
          <mxGeometry x="-0.182" y="2" relative="1" as="geometry">
            <mxPoint x="-2" y="-16" as="offset" />
          </mxGeometry>
        </mxCell>
        <mxCell id="laBx5j-lxXaf5YrroS2R-6" value="&lt;font style=&quot;font-size: 16px;&quot;&gt;服务发布管理&lt;/font&gt;" style="ellipse;whiteSpace=wrap;html=1;" vertex="1" parent="1">
          <mxGeometry x="319" y="208" width="140" height="70" as="geometry" />
        </mxCell>
        <mxCell id="laBx5j-lxXaf5YrroS2R-8" value="&lt;font style=&quot;font-size: 16px;&quot;&gt;数据服务修改&lt;/font&gt;" style="ellipse;whiteSpace=wrap;html=1;" vertex="1" parent="1">
          <mxGeometry x="620" y="65" width="140" height="70" as="geometry" />
        </mxCell>
        <mxCell id="laBx5j-lxXaf5YrroS2R-10" value="&lt;font style=&quot;font-size: 16px;&quot;&gt;数据服务删除&lt;/font&gt;" style="ellipse;whiteSpace=wrap;html=1;" vertex="1" parent="1">
          <mxGeometry x="620" y="152" width="140" height="70" as="geometry" />
        </mxCell>
        <mxCell id="laBx5j-lxXaf5YrroS2R-11" value="&lt;font style=&quot;font-size: 16px;&quot;&gt;数据服务发布&lt;/font&gt;" style="ellipse;whiteSpace=wrap;html=1;" vertex="1" parent="1">
          <mxGeometry x="620" y="239" width="140" height="70" as="geometry" />
        </mxCell>
        <mxCell id="laBx5j-lxXaf5YrroS2R-12" value="&lt;font style=&quot;font-size: 16px;&quot;&gt;数据服务查询&lt;/font&gt;" style="ellipse;whiteSpace=wrap;html=1;" vertex="1" parent="1">
          <mxGeometry x="620" y="326" width="140" height="70" as="geometry" />
        </mxCell>
        <mxCell id="laBx5j-lxXaf5YrroS2R-17" style="rounded=0;orthogonalLoop=1;jettySize=auto;html=1;exitX=0.998;exitY=0.371;exitDx=0;exitDy=0;dashed=1;exitPerimeter=0;entryX=0;entryY=0.5;entryDx=0;entryDy=0;" edge="1" parent="1" source="laBx5j-lxXaf5YrroS2R-6" target="laBx5j-lxXaf5YrroS2R-10">
          <mxGeometry relative="1" as="geometry">
            <mxPoint x="467" y="238" as="sourcePoint" />
            <mxPoint x="654" y="212" as="targetPoint" />
          </mxGeometry>
        </mxCell>
        <mxCell id="laBx5j-lxXaf5YrroS2R-18" value="&lt;font style=&quot;font-size: 16px;&quot;&gt;&amp;lt;&amp;lt;包含&amp;gt;&amp;gt;&lt;/font&gt;" style="edgeLabel;html=1;align=center;verticalAlign=middle;resizable=0;points=[];" vertex="1" connectable="0" parent="laBx5j-lxXaf5YrroS2R-17">
          <mxGeometry x="-0.182" y="2" relative="1" as="geometry">
            <mxPoint x="14" y="-22" as="offset" />
          </mxGeometry>
        </mxCell>
        <mxCell id="laBx5j-lxXaf5YrroS2R-19" style="rounded=0;orthogonalLoop=1;jettySize=auto;html=1;exitX=0.937;exitY=0.753;exitDx=0;exitDy=0;dashed=1;exitPerimeter=0;" edge="1" parent="1" source="laBx5j-lxXaf5YrroS2R-6" target="laBx5j-lxXaf5YrroS2R-11">
          <mxGeometry relative="1" as="geometry">
            <mxPoint x="453" y="278" as="sourcePoint" />
            <mxPoint x="669" y="184" as="targetPoint" />
          </mxGeometry>
        </mxCell>
        <mxCell id="laBx5j-lxXaf5YrroS2R-20" value="&lt;font style=&quot;font-size: 16px;&quot;&gt;&amp;lt;&amp;lt;包含&amp;gt;&amp;gt;&lt;/font&gt;" style="edgeLabel;html=1;align=center;verticalAlign=middle;resizable=0;points=[];" vertex="1" connectable="0" parent="laBx5j-lxXaf5YrroS2R-19">
          <mxGeometry x="-0.182" y="2" relative="1" as="geometry">
            <mxPoint x="-2" y="-16" as="offset" />
          </mxGeometry>
        </mxCell>
        <mxCell id="laBx5j-lxXaf5YrroS2R-21" style="rounded=0;orthogonalLoop=1;jettySize=auto;html=1;exitX=1;exitY=1;exitDx=0;exitDy=0;dashed=1;entryX=0;entryY=0.5;entryDx=0;entryDy=0;" edge="1" parent="1" source="laBx5j-lxXaf5YrroS2R-6" target="laBx5j-lxXaf5YrroS2R-12">
          <mxGeometry relative="1" as="geometry">
            <mxPoint x="416.9987067409407" y="343.9963134828351" as="sourcePoint" />
            <mxPoint x="645.08" y="375.46" as="targetPoint" />
          </mxGeometry>
        </mxCell>
        <mxCell id="laBx5j-lxXaf5YrroS2R-22" value="&lt;font style=&quot;font-size: 16px;&quot;&gt;&amp;lt;&amp;lt;包含&amp;gt;&amp;gt;&lt;/font&gt;" style="edgeLabel;html=1;align=center;verticalAlign=middle;resizable=0;points=[];" vertex="1" connectable="0" parent="laBx5j-lxXaf5YrroS2R-21">
          <mxGeometry x="-0.182" y="2" relative="1" as="geometry">
            <mxPoint x="33" y="-7" as="offset" />
          </mxGeometry>
        </mxCell>
        <mxCell id="laBx5j-lxXaf5YrroS2R-23" value="&lt;span style=&quot;font-size: 16px;&quot;&gt;数据可视化管理&lt;/span&gt;" style="ellipse;whiteSpace=wrap;html=1;" vertex="1" parent="1">
          <mxGeometry x="319" y="483" width="140" height="70" as="geometry" />
        </mxCell>
        <mxCell id="laBx5j-lxXaf5YrroS2R-24" style="rounded=0;orthogonalLoop=1;jettySize=auto;html=1;entryX=0;entryY=0.5;entryDx=0;entryDy=0;endArrow=none;endFill=0;exitX=1;exitY=0.3333333333333333;exitDx=0;exitDy=0;exitPerimeter=0;" edge="1" parent="1" source="laBx5j-lxXaf5YrroS2R-1" target="laBx5j-lxXaf5YrroS2R-23">
          <mxGeometry relative="1" as="geometry">
            <mxPoint x="181" y="359" as="sourcePoint" />
            <mxPoint x="331" y="266" as="targetPoint" />
          </mxGeometry>
        </mxCell>
        <mxCell id="laBx5j-lxXaf5YrroS2R-26" value="&lt;span style=&quot;font-size: 16px;&quot;&gt;添加视图&lt;/span&gt;" style="ellipse;whiteSpace=wrap;html=1;" vertex="1" parent="1">
          <mxGeometry x="620" y="420" width="140" height="70" as="geometry" />
        </mxCell>
        <mxCell id="laBx5j-lxXaf5YrroS2R-27" value="&lt;span style=&quot;font-size: 16px;&quot;&gt;删除视图&lt;/span&gt;" style="ellipse;whiteSpace=wrap;html=1;" vertex="1" parent="1">
          <mxGeometry x="620" y="497" width="140" height="70" as="geometry" />
        </mxCell>
        <mxCell id="laBx5j-lxXaf5YrroS2R-28" value="&lt;span style=&quot;font-size: 16px;&quot;&gt;查询视图&lt;/span&gt;" style="ellipse;whiteSpace=wrap;html=1;" vertex="1" parent="1">
          <mxGeometry x="620" y="584" width="140" height="70" as="geometry" />
        </mxCell>
        <mxCell id="laBx5j-lxXaf5YrroS2R-29" style="rounded=0;orthogonalLoop=1;jettySize=auto;html=1;exitX=0.923;exitY=0.233;exitDx=0;exitDy=0;dashed=1;entryX=0;entryY=0.5;entryDx=0;entryDy=0;exitPerimeter=0;" edge="1" parent="1" source="laBx5j-lxXaf5YrroS2R-23" target="laBx5j-lxXaf5YrroS2R-26">
          <mxGeometry relative="1" as="geometry">
            <mxPoint x="449" y="278" as="sourcePoint" />
            <mxPoint x="630" y="371" as="targetPoint" />
          </mxGeometry>
        </mxCell>
        <mxCell id="laBx5j-lxXaf5YrroS2R-30" value="&lt;font style=&quot;font-size: 16px;&quot;&gt;&amp;lt;&amp;lt;包含&amp;gt;&amp;gt;&lt;/font&gt;" style="edgeLabel;html=1;align=center;verticalAlign=middle;resizable=0;points=[];" vertex="1" connectable="0" parent="laBx5j-lxXaf5YrroS2R-29">
          <mxGeometry x="-0.182" y="2" relative="1" as="geometry">
            <mxPoint x="-6" y="-19" as="offset" />
          </mxGeometry>
        </mxCell>
        <mxCell id="laBx5j-lxXaf5YrroS2R-32" style="rounded=0;orthogonalLoop=1;jettySize=auto;html=1;exitX=1;exitY=0.5;exitDx=0;exitDy=0;dashed=1;entryX=0;entryY=0.5;entryDx=0;entryDy=0;" edge="1" parent="1" source="laBx5j-lxXaf5YrroS2R-23" target="laBx5j-lxXaf5YrroS2R-27">
          <mxGeometry relative="1" as="geometry">
            <mxPoint x="458" y="509" as="sourcePoint" />
            <mxPoint x="630" y="465" as="targetPoint" />
          </mxGeometry>
        </mxCell>
        <mxCell id="laBx5j-lxXaf5YrroS2R-33" value="&lt;font style=&quot;font-size: 16px;&quot;&gt;&amp;lt;&amp;lt;包含&amp;gt;&amp;gt;&lt;/font&gt;" style="edgeLabel;html=1;align=center;verticalAlign=middle;resizable=0;points=[];" vertex="1" connectable="0" parent="laBx5j-lxXaf5YrroS2R-32">
          <mxGeometry x="-0.182" y="2" relative="1" as="geometry">
            <mxPoint x="18" y="-13" as="offset" />
          </mxGeometry>
        </mxCell>
        <mxCell id="laBx5j-lxXaf5YrroS2R-34" style="rounded=0;orthogonalLoop=1;jettySize=auto;html=1;exitX=0.923;exitY=0.831;exitDx=0;exitDy=0;dashed=1;entryX=0;entryY=0.5;entryDx=0;entryDy=0;exitPerimeter=0;" edge="1" parent="1" source="laBx5j-lxXaf5YrroS2R-23" target="laBx5j-lxXaf5YrroS2R-28">
          <mxGeometry relative="1" as="geometry">
            <mxPoint x="469" y="528" as="sourcePoint" />
            <mxPoint x="630" y="542" as="targetPoint" />
          </mxGeometry>
        </mxCell>
        <mxCell id="laBx5j-lxXaf5YrroS2R-35" value="&lt;font style=&quot;font-size: 16px;&quot;&gt;&amp;lt;&amp;lt;包含&amp;gt;&amp;gt;&lt;/font&gt;" style="edgeLabel;html=1;align=center;verticalAlign=middle;resizable=0;points=[];" vertex="1" connectable="0" parent="laBx5j-lxXaf5YrroS2R-34">
          <mxGeometry x="-0.182" y="2" relative="1" as="geometry">
            <mxPoint x="18" y="-13" as="offset" />
          </mxGeometry>
        </mxCell>
        <mxCell id="laBx5j-lxXaf5YrroS2R-36" value="&lt;font style=&quot;font-size: 16px;&quot;&gt;数据源选择&lt;/font&gt;" style="ellipse;whiteSpace=wrap;html=1;" vertex="1" parent="1">
          <mxGeometry x="876" y="160" width="140" height="70" as="geometry" />
        </mxCell>
        <mxCell id="laBx5j-lxXaf5YrroS2R-37" value="&lt;font style=&quot;font-size: 16px;&quot;&gt;数据服务发布&lt;/font&gt;" style="ellipse;whiteSpace=wrap;html=1;" vertex="1" parent="1">
          <mxGeometry x="876" y="242" width="140" height="70" as="geometry" />
        </mxCell>
        <mxCell id="laBx5j-lxXaf5YrroS2R-38" value="&lt;font style=&quot;font-size: 16px;&quot;&gt;服务预览&lt;/font&gt;" style="ellipse;whiteSpace=wrap;html=1;" vertex="1" parent="1">
          <mxGeometry x="876" y="326" width="140" height="70" as="geometry" />
        </mxCell>
        <mxCell id="laBx5j-lxXaf5YrroS2R-39" style="rounded=0;orthogonalLoop=1;jettySize=auto;html=1;dashed=1;entryX=-0.002;entryY=0.72;entryDx=0;entryDy=0;entryPerimeter=0;" edge="1" parent="1" source="laBx5j-lxXaf5YrroS2R-11" target="laBx5j-lxXaf5YrroS2R-36">
          <mxGeometry relative="1" as="geometry">
            <mxPoint x="460" y="271" as="sourcePoint" />
            <mxPoint x="630" y="280" as="targetPoint" />
          </mxGeometry>
        </mxCell>
        <mxCell id="laBx5j-lxXaf5YrroS2R-40" value="&lt;font style=&quot;font-size: 16px;&quot;&gt;&amp;lt;&amp;lt;包含&amp;gt;&amp;gt;&lt;/font&gt;" style="edgeLabel;html=1;align=center;verticalAlign=middle;resizable=0;points=[];" vertex="1" connectable="0" parent="laBx5j-lxXaf5YrroS2R-39">
          <mxGeometry x="-0.182" y="2" relative="1" as="geometry">
            <mxPoint x="-2" y="-16" as="offset" />
          </mxGeometry>
        </mxCell>
        <mxCell id="laBx5j-lxXaf5YrroS2R-41" style="rounded=0;orthogonalLoop=1;jettySize=auto;html=1;dashed=1;entryX=0;entryY=0.5;entryDx=0;entryDy=0;exitX=1;exitY=0.5;exitDx=0;exitDy=0;" edge="1" parent="1" source="laBx5j-lxXaf5YrroS2R-11" target="laBx5j-lxXaf5YrroS2R-37">
          <mxGeometry relative="1" as="geometry">
            <mxPoint x="758" y="264" as="sourcePoint" />
            <mxPoint x="886" y="220" as="targetPoint" />
          </mxGeometry>
        </mxCell>
        <mxCell id="laBx5j-lxXaf5YrroS2R-42" value="&lt;font style=&quot;font-size: 16px;&quot;&gt;&amp;lt;&amp;lt;包含&amp;gt;&amp;gt;&lt;/font&gt;" style="edgeLabel;html=1;align=center;verticalAlign=middle;resizable=0;points=[];" vertex="1" connectable="0" parent="laBx5j-lxXaf5YrroS2R-41">
          <mxGeometry x="-0.182" y="2" relative="1" as="geometry">
            <mxPoint x="11" y="-15" as="offset" />
          </mxGeometry>
        </mxCell>
        <mxCell id="laBx5j-lxXaf5YrroS2R-43" style="rounded=0;orthogonalLoop=1;jettySize=auto;html=1;dashed=1;entryX=0;entryY=0.5;entryDx=0;entryDy=0;exitX=1;exitY=1;exitDx=0;exitDy=0;" edge="1" parent="1" source="laBx5j-lxXaf5YrroS2R-11" target="laBx5j-lxXaf5YrroS2R-38">
          <mxGeometry relative="1" as="geometry">
            <mxPoint x="770" y="284" as="sourcePoint" />
            <mxPoint x="886" y="287" as="targetPoint" />
          </mxGeometry>
        </mxCell>
        <mxCell id="laBx5j-lxXaf5YrroS2R-44" value="&lt;font style=&quot;font-size: 16px;&quot;&gt;&amp;lt;&amp;lt;包含&amp;gt;&amp;gt;&lt;/font&gt;" style="edgeLabel;html=1;align=center;verticalAlign=middle;resizable=0;points=[];" vertex="1" connectable="0" parent="laBx5j-lxXaf5YrroS2R-43">
          <mxGeometry x="-0.182" y="2" relative="1" as="geometry">
            <mxPoint x="42" y="-8" as="offset" />
          </mxGeometry>
        </mxCell>
      </root>
    </mxGraphModel>
  </diagram>
</mxfile>
